<?xml version="1.0" standalone="no"?>
<!DOCTYPE svg PUBLIC "-//W3C//DTD SVG 20010904//EN"
 "http://www.w3.org/TR/2001/REC-SVG-20010904/DTD/svg10.dtd">
<svg version="1.0" xmlns="http://www.w3.org/2000/svg"
 width="16.000000pt" height="16.000000pt" viewBox="0 0 16.000000 16.000000"
 preserveAspectRatio="xMidYMid meet">
<metadata>
Created by potrace 1.11, written by Peter Selinger 2001-2013
</metadata>
<g transform="translate(0.000000,16.000000) scale(0.001297,-0.001297)"
fill="#000000" stroke="none">
<path d="M870 7429 l0 -4912 48 61 c26 33 78 99 116 148 38 48 69 93 69 100 0
7 4 12 7 11 7 -2 75 80 125 149 11 15 25 32 30 38 6 6 120 153 254 326 135
173 256 329 270 346 14 17 33 41 41 53 8 13 23 33 34 44 10 12 37 47 60 77 22
30 43 57 47 60 3 3 29 37 58 75 30 39 57 71 61 73 4 1 7 -910 8 -2025 0 -1115
1 -2034 1 -2041 1 -9 933 -12 4628 -12 l4627 0 -62 45 c-34 25 -66 45 -71 45
-5 0 -11 4 -13 8 -1 5 -30 28 -63 50 -33 23 -100 71 -150 106 -49 35 -103 74
-120 86 -16 11 -69 49 -117 83 -48 34 -113 80 -144 102 -31 22 -79 56 -105 75
-27 19 -77 55 -111 79 -35 24 -142 99 -238 167 -96 68 -183 130 -193 136 -27
19 -150 107 -162 116 -13 9 -126 89 -185 131 -25 17 -62 43 -83 58 -21 16 -70
50 -110 78 -40 27 -81 58 -91 67 -11 10 -25 18 -32 18 -7 0 -14 4 -16 8 -1 4
-34 30 -73 57 -38 27 -72 52 -75 55 -3 3 -23 17 -45 32 -22 15 -62 43 -90 63
-27 19 -72 51 -100 70 -27 19 -88 62 -135 95 -47 34 -101 72 -120 85 -19 13
-82 58 -140 99 -58 42 -136 97 -173 123 -37 27 -74 53 -80 58 -7 6 -20 15 -29
20 -9 6 -70 48 -135 95 -65 47 -131 93 -146 103 -16 10 -37 26 -48 36 -11 10
-31 24 -46 32 -15 8 -34 20 -43 28 -15 13 -89 66 -333 238 -65 46 -122 83
-127 83 -6 0 -10 4 -10 9 0 5 -15 18 -33 29 -19 11 -42 27 -53 35 -10 9 -80
59 -154 111 -74 52 -153 108 -175 124 -155 112 -328 232 -335 232 -5 0 -10 4
-12 9 -1 5 -25 24 -53 43 -27 18 -144 101 -260 183 -257 182 -384 272 -410
291 -44 32 -333 235 -378 266 -26 18 -53 38 -60 44 -7 6 -63 46 -125 90 -62
43 -152 107 -200 141 -48 34 -105 75 -127 90 -22 15 -101 71 -175 124 -74 52
-182 128 -240 169 -58 41 -107 76 -110 79 -3 3 -12 11 -21 16 -9 6 -57 38
-105 73 -49 34 -118 83 -154 108 -36 25 -73 51 -82 59 -10 8 -37 27 -60 42
-24 15 -45 30 -48 33 -3 3 -39 29 -80 59 -187 132 -324 228 -432 304 -64 45
-117 85 -117 88 -1 3 28 44 64 90 36 46 73 95 84 109 10 14 38 50 62 80 39 49
195 249 343 440 28 36 140 180 249 320 110 140 210 269 222 285 102 131 161
207 193 247 20 25 47 59 58 75 20 26 183 236 239 308 13 17 55 71 94 120 39
50 74 95 78 100 75 96 262 337 303 390 29 39 56 72 59 75 4 3 20 23 36 45 16
22 35 47 42 55 7 8 73 94 147 190 75 96 139 180 144 185 4 6 32 41 62 80 30
38 61 77 67 85 7 8 49 62 93 120 45 58 93 120 108 139 15 19 48 62 74 95 27
34 52 66 56 71 5 6 30 39 58 75 27 36 51 67 54 70 3 3 28 34 55 70 70 91 133
172 148 190 7 8 31 39 54 70 23 30 46 60 51 66 5 6 31 39 58 73 27 35 78 101
114 147 174 223 288 368 315 404 78 102 121 155 128 158 4 2 7 10 7 17 0 8 6
18 13 22 7 4 51 58 97 118 47 61 89 115 95 122 18 22 30 37 60 78 17 22 32 42
35 45 4 3 57 70 118 150 62 80 124 159 137 175 13 17 36 46 52 66 15 20 39 51
53 69 28 38 136 177 178 229 15 18 31 41 36 50 6 9 22 30 38 46 15 17 28 34
28 39 0 5 6 14 14 20 17 14 296 372 296 380 0 3 -1719 6 -3820 6 l-3820 0 0
-4911z"/>
<path d="M11430 11623 c-19 -27 -39 -53 -45 -60 -5 -7 -15 -18 -20 -25 -21
-26 -181 -231 -200 -257 -11 -14 -48 -62 -83 -106 -34 -44 -66 -84 -70 -90
-11 -14 -329 -422 -417 -535 -41 -52 -135 -173 -209 -267 -74 -95 -133 -173
-131 -173 2 0 -8 -12 -22 -27 -14 -16 -50 -59 -79 -98 -29 -38 -92 -119 -139
-180 -47 -60 -114 -146 -148 -189 -34 -44 -88 -114 -119 -155 -31 -42 -63 -83
-71 -91 -8 -8 -94 -118 -192 -245 -98 -126 -197 -253 -219 -281 -23 -28 -48
-61 -56 -74 -8 -12 -20 -28 -25 -34 -17 -18 -157 -196 -202 -256 -23 -30 -89
-116 -147 -190 -58 -74 -123 -157 -144 -183 -20 -27 -64 -83 -98 -125 -33 -43
-85 -109 -115 -148 -30 -39 -115 -149 -189 -244 -74 -95 -153 -196 -175 -225
-22 -29 -52 -67 -67 -86 -15 -19 -72 -92 -128 -164 -56 -71 -114 -146 -130
-165 -16 -19 -30 -41 -30 -47 0 -7 -4 -13 -8 -13 -4 0 -26 -24 -47 -52 -22
-29 -48 -62 -57 -73 -9 -11 -46 -58 -82 -105 -82 -106 -67 -87 -161 -206 -44
-56 -91 -115 -104 -133 -32 -41 -354 -456 -386 -496 -13 -16 -53 -68 -89 -115
-37 -47 -72 -92 -79 -100 -7 -9 -33 -42 -57 -75 -25 -33 -57 -73 -73 -90 -15
-16 -30 -38 -33 -47 -3 -10 -10 -18 -15 -18 -31 0 -2 -26 161 -139 25 -17 77
-53 115 -81 39 -27 77 -54 85 -60 37 -25 231 -163 290 -205 36 -26 126 -89
200 -141 74 -52 142 -100 151 -107 8 -7 23 -16 32 -22 14 -9 70 -49 344 -244
51 -36 149 -106 219 -156 70 -49 161 -114 202 -142 40 -29 77 -53 82 -53 4 0
10 -4 12 -8 2 -4 70 -55 152 -112 81 -58 174 -123 205 -146 31 -22 151 -107
266 -189 345 -244 498 -351 630 -445 292 -208 367 -260 375 -260 6 0 10 -4 10
-8 0 -4 12 -15 28 -24 15 -9 37 -25 49 -35 12 -10 54 -40 94 -68 39 -27 113
-79 165 -115 51 -36 103 -72 115 -80 12 -8 34 -24 48 -35 28 -22 24 -19 244
-173 84 -58 157 -111 164 -117 6 -5 33 -25 60 -43 26 -18 91 -64 143 -101 52
-37 132 -93 178 -125 l82 -57 0 4890 c0 2690 -1 4891 -3 4891 -2 0 -19 -21
-37 -47z"/>
</g>
</svg>
